<?xml version="1.0" encoding="UTF-8" standalone="no"?>
<!-- Uploaded to: SVG Repo, www.svgrepo.com, Generator: SVG Repo Mixer Tools -->

<svg
   width="800px"
   height="800px"
   viewBox="-1 0 20 20"
   version="1.1"
   id="svg1"
   sodipodi:docname="html5-01-svgrepo-com.svg"
   inkscape:version="1.3.2 (091e20e, 2023-11-25, custom)"
   xmlns:inkscape="http://www.inkscape.org/namespaces/inkscape"
   xmlns:sodipodi="http://sodipodi.sourceforge.net/DTD/sodipodi-0.dtd"
   xmlns="http://www.w3.org/2000/svg"
   xmlns:svg="http://www.w3.org/2000/svg">
  <sodipodi:namedview
     id="namedview1"
     pagecolor="#ffffff"
     bordercolor="#000000"
     borderopacity="0.25"
     inkscape:showpageshadow="2"
     inkscape:pageopacity="0.0"
     inkscape:pagecheckerboard="0"
     inkscape:deskcolor="#d1d1d1"
     inkscape:zoom="1.0438664"
     inkscape:cx="406.18225"
     inkscape:cy="358.76239"
     inkscape:window-width="2560"
     inkscape:window-height="1377"
     inkscape:window-x="-8"
     inkscape:window-y="-8"
     inkscape:window-maximized="1"
     inkscape:current-layer="svg1"
     showguides="true">
    <sodipodi:guide
       position="0.40714023,21.939903"
       orientation="0,-1"
       id="guide8"
       inkscape:locked="false" />
  </sodipodi:namedview>
  <title
     id="title1">html [#124]</title>
  <desc
     id="desc1">Created with Sketch.</desc>
  <defs
     id="defs1" />
  <path
     d="M 14.563563,6.0000001 H 14.556463 5.9404944 L 6.1465351,8.0000001 H 14.358582 C 14.238222,9.7520001 13.874081,13.464 13.74046,15.153 L 9.128005,16.451 V 16.455 L 9.117805,16.46 4.5022896,14.836 4.1860886,11 H 6.4484561 L 6.6085966,13.063 9.121885,14 H 9.128005 L 11.637213,13.1 11.895234,10 H 4.0850682 C 4.0473282,9.5990001 3.5618065,4.3920001 3.4771462,4.0000001 H 14.765524 C 14.702284,4.6600001 14.638023,5.3380001 14.563563,6.0000001 Z M 0.128475,0 1.7666005,18.148 9.117765,20 16.488309,18.111 18.128475,0 Z"
     id="html"
     style="display:none" />
  <path
     d="M 18.128475,0 16.440711,18.055413 9.1283562,20 1.815883,18.055413 0.128475,0 Z M 14.727544,3.6712865 H 9.1217773 3.4167041 L 3.689544,5.8516473 H 9.1217773 9.4269152 L 9.1217773,5.9770881 3.8880811,8.1299733 4.0616529,10.261215 9.1217773,10.277415 11.833853,10.285915 11.660242,13.127647 9.1217377,13.833521 V 13.831321 L 9.1009307,13.837021 6.6493711,13.225786 6.5006065,11.461787 H 6.4924865 4.2185405 4.2105305 L 4.5081775,14.867162 9.1218112,16.214682 V 16.212282 L 9.1301312,16.214682 13.719037,14.891702 14.314293,8.1299929 H 9.1218067 9.1090039 L 9.1218069,8.1245129 14.504506,5.8516664 Z"
     id="css"
     style="display:none">

</path>
  <path
     d="M 14.328,18.432 C 12.583,18.432 11.455,17.6 10.905,16.512 V 16.512 L 12.435,15.626 C 12.838,16.284 13.361,16.767 14.288,16.767 15.066,16.767 15.563,16.378 15.563,15.841 15.563,15.033 14.485,14.717 13.724,14.391 12.368,13.814 11.468,13.089 11.468,11.558 11.468,10.149 12.542,9.075 14.221,9.075 15.415,9.075 16.275,9.491 16.892,10.578 L 15.429,11.518 C 15.107,10.941 14.758,10.713 14.221,10.713 13.67,10.713 13.321,11.062 13.321,11.518 13.321,12.082 13.67,12.31 14.476,12.659 16.165,13.383 17.443,13.952 17.443,15.814 17.443,17.506 16.114,18.432 14.328,18.432 Z M 10,15.599 C 10,17.546 8.801,18.575 7.136,18.575 5.632,18.575 4.731,18 4.288,17 H 4.273 4.266 4.262 L 5.791,15.931 C 6.086,16.454 6.352,16.825 6.996,16.825 7.614,16.825 8,16.512 8,15.573 V 9 H 10 Z M -1,20 H 19 V 0 H -1 Z"
     id="javascript"
     inkscape:label="javascript"
     style="display:none" />
  <path
     d="M 11.744,18.45798 C 11.262,18.45798 10.872,18.06594 10.872,17.58142 10.872,17.0969 11.262,16.70587 11.744,16.70587 12.226,16.70587 12.616,17.0969 12.616,17.58142 12.616,18.06594 12.226,18.45798 11.744,18.45798 M 9.072,20 C 14.15,20 13.833,17.78649 13.833,17.78649 L 13.827,15.49357 H 8.982 V 14.80499 H 15.751 C 15.751,14.80499 19,15.17591 19,10.02614 19,4.87636 16.165,5.0583 16.165,5.0583 H 14.472 V 7.44873 C 14.472,7.44873 14.563,10.29855 11.682,10.29855 H 6.876 C 6.876,10.29855 4.176,10.25533 4.176,12.9222 V 17.33112 C 4.176,17.33112 3.766,20 9.072,20 M 6.257,1.54202 C 6.739,1.54202 7.128,1.93406 7.128,2.41858 7.128,2.9031 6.739,3.29413 6.257,3.29413 5.775,3.29413 5.385,2.9031 5.385,2.41858 5.385,1.93406 5.775,1.54202 6.257,1.54202 M 8.928,0 C 3.851,0 4.168,2.21351 4.168,2.21351 L 4.174,4.50643 H 9.019 V 5.19501 H 2.249 C 2.249,5.19501 -1,4.82409 -1,9.97386 -1,15.12364 1.836,14.9417 1.836,14.9417 H 3.528 V 12.55127 C 3.528,12.55127 3.437,9.70145 6.319,9.70145 H 11.124 C 11.124,9.70145 13.824,9.74467 13.824,7.0778 V 2.66888 C 13.824,2.66888 14.234,0 8.928,0"
     id="python"
     inkscape:label="python"
     style="display:none" />
  <path
     d="M 18.353139,9.426387 C 18.298456,9.4223858 18.235104,9.4197184 18.171085,9.4197184 17.848321,9.4197184 17.539562,9.4797364 17.255477,9.5891025 L 17.272815,9.5831007 C 17.189457,9.616444 17.056083,9.616444 17.044747,9.7224759 17.090761,9.7664891 17.097429,9.8391775 17.136107,9.9005293 17.214131,10.032569 17.31016,10.144603 17.422193,10.237964 L 17.424194,10.239964 C 17.540896,10.331325 17.657597,10.420019 17.780301,10.498042 17.997032,10.631415 18.243106,10.710772 18.45517,10.844813 18.575873,10.922836 18.699243,11.022199 18.821947,11.105557 18.882631,11.146903 18.921977,11.222259 19,11.248934 V 11.232262 C 18.961989,11.182247 18.949985,11.109559 18.91264,11.054209 18.856624,10.998192 18.801274,10.948177 18.745924,10.893494 18.580541,10.676762 18.38915,10.491373 18.174419,10.33666 L 18.166417,10.331325 C 17.988363,10.209955 17.598246,10.039904 17.524891,9.8351763 L 17.514221,9.8231727 C 17.659598,9.8024999 17.78897,9.771824 17.913674,9.7304783 L 17.897669,9.7351463 C 18.087059,9.6851313 18.260445,9.6958012 18.455837,9.6471199 18.543863,9.6244464 18.633223,9.5971049 18.722583,9.5690965 V 9.5190815 C 18.622553,9.4190515 18.547864,9.2830107 18.4445,9.1896493 18.171752,8.9495773 17.870995,8.7241764 17.554233,8.5214489 L 17.524224,8.5034435 C 17.349505,8.3920767 17.127438,8.3200551 16.943383,8.2253601 16.876696,8.1920167 16.76533,8.1753451 16.726651,8.1193282 16.639959,7.9959579 16.563269,7.8545822 16.502584,7.705204 L 16.497249,7.6905329 Q 16.251842,7.2143901 16.041112,6.7215758 C 15.945084,6.4661658 15.849722,6.2567697 15.742356,6.0540422 L 15.757694,6.0853849 C 15.233537,5.2057877 14.503318,4.498909 13.631723,4.0167644 L 13.603048,4.0020933 C 13.396986,3.9000627 13.157581,3.8207056 12.906172,3.7760255 L 12.8895,3.7733581 C 12.750125,3.7666894 12.611417,3.7566864 12.472708,3.7506846 12.375346,3.6879991 12.291321,3.6239799 12.21263,3.553292 L 12.214631,3.5552926 C 11.897869,3.3552326 11.07829,2.9217693 10.844887,3.4952746 10.694842,3.8567164 11.06762,4.2134901 11.196326,4.3968784 11.299023,4.518915 11.392384,4.6556227 11.473075,4.8003328 L 11.479744,4.8136701 C 11.519089,4.9103658 11.529759,5.0097289 11.569104,5.1104258 11.6658,5.4118496 11.763829,5.6592571 11.875196,5.8986623 L 11.857857,5.8573165 C 11.923877,5.990023 11.992564,6.1027235 12.069254,6.2094222 L 12.063919,6.2014198 C 12.108599,6.2621046 12.185289,6.2907799 12.203294,6.3908099 12.145944,6.5115128 12.101264,6.6515548 12.07659,6.7975986 L 12.075256,6.8069347 C 12.003234,7.0283343 11.961222,7.2837442 11.961222,7.5484903 11.961222,7.9626146 12.063252,8.3527316 12.243306,8.6955011 L 12.236638,8.6821638 C 12.325998,8.8202052 12.538061,9.1269639 12.822147,9.0095953 13.072222,8.9095653 13.016872,8.5928036 13.088893,8.3140533 13.105565,8.2473667 13.094895,8.2033535 13.128905,8.1580065 V 8.170677 C 13.206929,8.3273907 13.285619,8.4767688 13.356974,8.6334825 13.558368,8.9235695 13.797773,9.1703102 14.071188,9.3737046 L 14.079857,9.3797064 C 14.213231,9.4797364 14.319262,9.6531217 14.485979,9.7144735 V 9.6978018 H 14.473309 C 14.435297,9.6564561 14.393285,9.6197784 14.347271,9.5884356 L 14.344603,9.5871019 C 14.241239,9.4857382 14.14521,9.376372 14.058518,9.2610041 L 14.053183,9.2536685 C 13.835784,8.9602472 13.629055,8.6281476 13.449668,8.2793763 L 13.430329,8.2386974 C 13.338968,8.0639783 13.262279,7.875255 13.188923,7.7025365 13.15558,7.6358499 13.15558,7.5358199 13.099563,7.5024765 13.000867,7.6131764 12.912174,7.7365467 12.838151,7.8692532 L 12.832817,7.8799231 C 12.747458,8.1286644 12.691441,8.4160839 12.67677,8.7141734 V 8.7215089 C 12.654096,8.7275107 12.665433,8.7215089 12.654096,8.7335125 12.476043,8.6901662 12.414691,8.5054441 12.348004,8.3500641 12.257311,8.1059909 12.204628,7.8232394 12.204628,7.5291512 12.204628,7.2917466 12.238638,7.0623445 12.302657,6.845613 L 12.298656,6.8629515 C 12.338001,6.7462499 12.504718,6.3781394 12.438031,6.2661058 12.403354,6.160074 12.293321,6.0993891 12.23197,6.0133633 12.159281,5.9106659 12.092594,5.7939642 12.037245,5.6705938 L 12.03191,5.6572565 C 11.898536,5.3458297 11.83185,5.0003928 11.687139,4.688966 11.59978,4.5262505 11.507752,4.3862085 11.404388,4.2555027 L 11.409056,4.2615045 C 11.299023,4.134133 11.197659,3.9920903 11.109633,3.8413785 L 11.102297,3.8280411 C 11.074956,3.7673563 11.035611,3.6666594 11.079624,3.5999727 11.087626,3.5612944 11.118302,3.5312854 11.157647,3.5252836 H 11.158314 C 11.23167,3.4652656 11.437731,3.543289 11.509753,3.5766324 11.72115,3.6566564 11.903204,3.7506846 12.071922,3.8613845 L 12.061252,3.8547158 C 12.139275,3.9093989 12.223967,4.0154307 12.323997,4.0427722 H 12.440699 C 12.618752,4.0821173 12.820146,4.0547758 12.986863,4.1034571 13.292955,4.2068214 13.557701,4.3361935 13.802441,4.4949078 L 13.788437,4.4862385 C 14.524657,4.9617145 15.114168,5.604574 15.512954,6.3641352 L 15.526291,6.3914768 C 15.592978,6.5195152 15.62232,6.6375506 15.683005,6.7709239 15.799707,7.0456728 15.94375,7.3237562 16.062452,7.5891692 16.175153,7.8745882 16.308526,8.1213288 16.46724,8.3487304 L 16.459238,8.3367268 C 16.542596,8.4534285 16.877363,8.5141133 17.027408,8.5747982 17.185456,8.6301482 17.31216,8.6828306 17.434864,8.7421818 L 17.41019,8.7315119 C 17.60158,8.8482136 17.788303,8.9815869 17.968357,9.1096253 18.059718,9.1729777 18.337801,9.3123528 18.354473,9.4243864 Z M 10.534794,14.303184 C 10.534794,14.313187 10.535461,14.324524 10.535461,14.33586 10.535461,14.707972 10.369411,15.040738 10.106665,15.264806 L 10.104665,15.266139 C 9.8165783,15.500876 9.4451335,15.643586 9.0403454,15.643586 9.0090027,15.643586 8.97766,15.642919 8.9469841,15.640918 H 8.9509853 C 8.4581708,15.63425 8.0047014,15.474202 7.6332566,15.206788 L 7.6399253,15.211456 7.8373179,14.814671 C 8.1234037,14.974719 8.4635057,15.074082 8.8249475,15.088086 H 8.8289487 C 8.8469541,15.08942 8.867627,15.090087 8.8889667,15.090087 9.1103664,15.090087 9.3164283,15.020732 9.4851455,14.902697 L 9.4818112,14.904698 C 9.6345237,14.788663 9.7318862,14.607275 9.7318862,14.403214 9.7318862,14.399213 9.7318862,14.395878 9.7318862,14.391877 V 14.392544 C 9.7318862,14.117795 9.5404955,13.884391 9.1917242,13.688333 8.8682938,13.510946 8.2227668,13.140835 8.2227668,13.140835 7.9040045,12.943443 7.6952752,12.596005 7.6952752,12.199886 7.6952752,12.185882 7.6952752,12.171878 7.6959421,12.157874 V 12.159874 C 7.6952752,12.147204 7.6952752,12.132533 7.6952752,12.117862 7.6952752,11.774425 7.846654,11.466332 8.0860592,11.256936 L 8.0873929,11.255603 C 8.342136,11.039538 8.6749025,10.908165 9.0383448,10.908165 9.0616852,10.908165 9.0843586,10.908832 9.1070321,10.909499 H 9.1036978 C 9.1096996,10.909499 9.1170351,10.909499 9.1243706,10.909499 9.5504985,10.909499 9.9472842,11.03687 10.27805,11.256269 L 10.270048,11.251601 10.092661,11.648387 C 9.8319162,11.531018 9.527825,11.460331 9.207729,11.456996 H 9.2063953 C 9.1903905,11.455663 9.172385,11.454996 9.1537128,11.454996 8.9669901,11.454996 8.7949385,11.520349 8.6602314,11.629715 L 8.6615651,11.628381 C 8.5355273,11.733079 8.4555033,11.889793 8.4548365,12.065179 V 12.065179 C 8.4548365,12.338594 8.6495615,12.573332 9.0096696,12.773392 9.3371011,12.952779 9.9986329,13.331559 9.9986329,13.331559 10.324064,13.52295 10.539462,13.871054 10.539462,14.26984 10.539462,14.281844 10.539462,14.294515 10.538795,14.306518 V 14.304518 Z M 11.916542,14.65729 C 11.734487,14.293848 11.628455,13.865719 11.628455,13.412917 11.628455,13.341562 11.631123,13.270874 11.636458,13.20152 L 11.635791,13.210856 Q 11.635791,11.469667 12.694108,11.469 C 12.711447,11.467666 12.73212,11.466999 12.753459,11.466999 13.070221,11.466999 13.348304,11.632382 13.506352,11.88179 L 13.508353,11.885125 C 13.689073,12.246567 13.795105,12.673362 13.795105,13.124163 13.795105,13.193518 13.792438,13.262205 13.78777,13.330225 L 13.788437,13.320889 Q 13.788437,15.076082 12.730119,15.077416 C 12.712114,15.07875 12.691441,15.079417 12.670768,15.079417 12.354006,15.079417 12.075256,14.914034 11.917208,14.664626 L 11.915208,14.661291 Z M 14.660031,15.692267 13.813111,15.275475 C 13.890467,15.210789 13.959821,15.142769 14.02384,15.069414 L 14.025841,15.067413 C 14.367944,14.605941 14.573339,14.0251 14.573339,13.396912 14.573339,13.324224 14.570671,13.252202 14.565336,13.180847 L 14.566003,13.190183 Q 14.566003,10.90283 12.770131,10.901496 C 12.743456,10.900163 12.712114,10.899496 12.680771,10.899496 12.169284,10.899496 11.709813,11.12423 11.397052,11.481003 L 11.395719,11.483004 C 11.05495,11.944476 10.850222,12.52465 10.850222,13.152839 10.850222,13.223527 10.852889,13.293548 10.858224,13.362902 L 10.857557,13.353566 C 10.851555,13.420919 10.848221,13.499609 10.848221,13.578967 10.848221,14.161808 11.030943,14.70197 11.341703,15.145436 L 11.335701,15.136767 C 11.635124,15.45553 12.059918,15.654256 12.530059,15.654256 12.574072,15.654256 12.617419,15.652255 12.660098,15.648921 L 12.654096,15.649588 C 12.660098,15.649588 12.6681,15.649588 12.675436,15.649588 12.882832,15.649588 13.083558,15.619579 13.273615,15.564229 L 13.258944,15.56823 14.363276,16.211756 14.663366,15.693601 Z M 17.426195,15.579567 H 15.234204 V 10.971517 H 15.971758 V 15.013397 H 17.426195 Z M 7.1557801,12.17988 C 6.9643893,13.569631 6.5262579,14.824007 5.885399,15.947677 L 5.9120736,15.896328 C 5.6553299,16.390477 5.169851,16.73458 4.5996799,16.78993 L 4.5930112,16.790597 C 4.4202928,16.781261 4.2595779,16.739915 4.1135341,16.672561 L 4.1215365,16.675896 V 16.264439 C 4.2128972,16.278443 4.3182621,16.286445 4.4256277,16.286445 4.4316295,16.286445 4.4376313,16.286445 4.4443,16.286445 H 4.4436331 C 4.454303,16.287112 4.4663066,16.287112 4.4783102,16.287112 4.6710346,16.287112 4.8477543,16.217091 4.9837951,16.10039 L 4.9824614,16.101056 C 5.1291721,15.980354 5.2232003,15.8003 5.2285352,15.597572 V 15.596905 C 5.1931913,15.304818 5.1258378,15.038738 5.0291421,14.787329 L 5.0371445,14.810003 4.1922243,12.17988 H 4.9504518 L 5.5566337,14.14647 C 5.6646661,14.423887 5.7273515,14.745316 5.7273515,15.08075 5.7273515,15.081417 5.7273515,15.082084 5.7273515,15.082084 V 15.082084 C 6.0487813,14.240498 6.2928545,13.258871 6.4168917,12.240565 L 6.4228935,12.179213 Z M 3.8081091,15.579567 H 3.0358774 Q 3.003201,13.738348 2.8111433,11.904464 H 2.8044747 L 1.6294555,15.579567 H 1.0419459 L -0.12507085,11.904464 H -0.13307326 Q -0.26978093,13.739015 -0.29578874,15.579567 H -1 Q -0.93131273,13.122163 -0.65856424,10.97085 H 0.29972325 L 1.412057,14.357867 H 1.4187256 L 2.5410623,10.97085 H 3.453336 Q 3.7560935,13.489606 3.8101097,15.579567 Z M 12.670768,4.5849348 C 12.669434,4.5849348 12.667434,4.5849348 12.665433,4.5849348 12.586076,4.5849348 12.509386,4.5949378 12.436031,4.6136101 L 12.442699,4.6122763 V 4.6229462 H 12.454036 C 12.511387,4.7083052 12.570071,4.7823274 12.633423,4.8516815 L 12.63209,4.8503478 C 12.67677,4.9397079 12.715448,5.0284012 12.760128,5.1170945 L 12.771465,5.104424 C 12.844153,5.0470735 12.890167,4.959047 12.890167,4.8603508 12.890167,4.8483472 12.8895,4.8370104 12.888166,4.8250068 V 4.8263406 C 12.854823,4.7869954 12.850155,4.7483172 12.82148,4.7096389 12.788136,4.6536221 12.716782,4.6262805 12.671435,4.5822673 Z"
     id="mysql"
     style="display:none" />
  <path
     d="M 6.5702166,8.1357543 C 6.385129,7.7265185 6.3021546,7.2491807 6.4435633,6.8155613 6.5849328,6.3722355 6.9016053,6.0166199 7.2182777,5.6853096 8.0998804,4.8034721 9.1863753,4.1555676 10.048643,3.2592488 10.52602,2.767156 10.920579,2.1776857 11.056938,1.5004662 11.169032,1.0035985 11.11549,0.49209278 11.01322,0 11.471145,0.52129036 11.622182,1.2666507 11.490597,1.9389779 11.349384,2.6940446 10.930285,3.3614403 10.43831,3.9362726 10.043751,4.3991678 9.5906013,4.8083645 9.1181171,5.1884418 8.5676288,5.6317676 8.0269255,6.1091442 7.6810946,6.7327435 7.3886491,7.2393177 7.3204301,7.8629174 7.520234,8.4134445 7.8466911,9.3584912 8.6065719,10.060055 9.0207396,10.951521 8.5626973,10.547138 8.1145966,10.128196 7.6954977,9.6849483 7.2572209,9.217239 6.8430536,8.7204105 6.5702166,8.1357543 Z M 9.0547513,7.3952081 C 8.9719722,8.1698442 9.3761987,8.9005666 9.8586242,9.4754772 10.092361,9.7336371 10.292126,10.05031 10.301793,10.410857 10.311617,10.892969 10.038937,11.341344 9.6879396,11.65786 9.7708749,11.648231 9.8293092,11.575081 9.8975282,11.536138 10.423672,11.199974 10.930207,10.77614 11.188406,10.196532 11.358934,9.8018952 11.319991,9.3341468 11.09596,8.9687073 10.83279,8.5400195 10.486998,8.1600204 10.28242,7.6923894 10.170209,7.4293372 10.131265,7.122449 10.223868,6.8447589 10.345746,6.4696913 10.608759,6.1627253 10.886489,5.8947807 11.651262,5.1689898 12.576856,4.6523961 13.463547,4.0873877 12.343041,4.4088742 11.237212,4.8522391 10.292126,5.5489498 9.6928711,5.9971288 9.1376083,6.6206498 9.0547513,7.3952081 Z M 14.379553,11.058761 C 14.910589,11.088037 15.431684,11.477703 15.529218,12.013632 15.62182,12.476449 15.397789,12.934334 15.110236,13.285057 14.637634,13.850144 13.999397,14.254566 13.356542,14.600475 13.293058,14.639262 13.239516,14.688029 13.190789,14.741688 14.038497,14.527285 14.886049,14.205916 15.573053,13.65535 15.952896,13.338678 16.289059,12.919579 16.36221,12.417819 16.430429,11.984317 16.250273,11.536099 15.928669,11.248702 15.538846,10.89293 14.988514,10.761502 14.471999,10.82976 14.174818,10.868703 13.848478,10.93203 13.643899,11.180483 13.887578,11.131912 14.12609,11.034378 14.379553,11.058761 Z M 3.8031782,12.451909 C 4.441259,12.622437 5.0989874,12.671204 5.7517841,12.715078 6.336362,12.754021 6.9210573,12.763845 7.5105667,12.758914 9.0304461,12.734687 10.56011,12.63226 12.050791,12.301028 12.192004,12.266977 12.347972,12.242594 12.474782,12.154923 12.723197,11.994062 12.995838,11.86737 13.2639,11.740716 12.050791,11.935589 10.832868,12.101381 9.6052784,12.179267 8.3630109,12.257193 7.1109199,12.305921 5.8638778,12.223142 5.5082624,12.189091 5.1428229,12.169483 4.8115908,12.033005 4.7335479,11.998955 4.6263466,11.930892 4.6652897,11.828427 4.7384403,11.696881 4.8845847,11.633633 5.011238,11.565414 5.5472055,11.312068 6.1317441,11.170855 6.7017623,11.005219 5.7224691,10.990503 4.7481076,11.238917 3.8519061,11.623848 3.6521023,11.721343 3.4280323,11.799229 3.2673282,11.964904 3.203845,12.032966 3.203845,12.150109 3.2769955,12.208426 3.4231791,12.339971 3.617934,12.398406 3.8031782,12.451909 Z M 11.695293,13.791749 C 10.842692,13.942786 9.9851601,14.084194 9.1228529,14.127912 8.1777667,14.191239 7.2326808,14.13758 6.2973797,14.040202 6.1171844,14.015819 5.9368717,13.98666 5.7761676,13.903882 5.6933498,13.855115 5.6105711,13.777228 5.6154635,13.674763 5.6251308,13.514059 5.7614514,13.402082 5.8589854,13.285096 5.5570294,13.392298 5.2549165,13.504235 5.0016099,13.704195 4.8942912,13.787013 4.7872073,13.918441 4.8163657,14.064586 4.8603969,14.235075 5.0259934,14.337384 5.1721379,14.41527 5.5325285,14.600514 5.9369109,14.683214 6.3316262,14.756326 7.3300974,14.917187 8.3483338,14.922079 9.3518543,14.853703 10.414122,14.770925 11.471145,14.595622 12.499048,14.293509 12.20676,14.162081 11.92903,14.010887 11.695293,13.791749 Z M 6.3412543,15.477498 C 6.0684565,15.555385 5.7907273,15.648026 5.5666965,15.828065 5.4544464,15.915775 5.3668928,16.066969 5.4205522,16.208221 5.4887712,16.388416 5.659299,16.495774 5.8198857,16.588063 6.2389845,16.817182 6.7114687,16.924227 7.1742465,17.007162 8.2217979,17.17268 9.2983124,17.148375 10.340893,16.963327 10.959522,16.846341 11.578268,16.680705 12.153061,16.422623 11.777954,16.266694 11.412671,16.091235 11.061948,15.886695 10.452987,15.993857 9.8390156,16.10599 9.2154554,16.144933 8.3922867,16.20826 7.559138,16.140041 6.7358131,16.037771 6.5409016,15.993896 6.2973797,15.974444 6.165834,15.803877 6.0977715,15.662469 6.2535833,15.56016 6.3412543,15.477498 Z M 13.005701,18.60982 C 13.687656,18.468763 14.374661,18.307707 14.998182,17.991191 15.192937,17.87898 15.431684,17.75718 15.495167,17.523482 15.529218,17.299412 15.295363,17.182426 15.129727,17.089823 15.231997,17.206966 15.300216,17.377376 15.197829,17.513697 15.027301,17.742777 14.735169,17.83037 14.476891,17.91808 13.668283,18.147042 12.830241,18.239645 11.997249,18.332247 9.7904052,18.531933 7.5688444,18.5807 5.3621179,18.395574 4.6216108,18.317531 3.8663484,18.234752 3.1600095,17.971739 3.0480723,17.922972 2.8775444,17.874205 2.8775444,17.723129 2.9212625,17.591857 3.0480723,17.51855 3.1600095,17.455224 3.6666619,17.197103 4.2317878,17.055733 4.7968746,17.021683 4.6313955,16.924188 4.436484,16.91452 4.246504,16.919413 3.7738632,16.934012 3.3110854,17.055733 2.8629847,17.206966 2.4780932,17.348022 2.0834953,17.50403 1.7764902,17.786651 1.6547292,17.893696 1.5427921,18.098275 1.6692888,18.244537 1.8642003,18.454047 2.1663131,18.50755 2.434062,18.570877 3.9345674,18.829154 5.4544464,18.975103 6.9745992,19.028762 8.9914634,19.087392 11.022888,18.999643 13.005701,18.60982 Z M 15.003074,18.872989 C 14.087147,19.165278 13.137247,19.325982 12.192043,19.457567 10.56011,19.662146 8.9134205,19.725473 7.2716631,19.676862 6.2730353,19.637919 5.2744077,19.5697 4.2902221,19.403908 4.5191844,19.559837 4.8018061,19.608487 5.0649366,19.681637 6.1708829,19.915531 7.3058313,19.959366 8.431269,19.993417 10.082537,20.022693 11.73408,19.959366 13.361277,19.701128 14.131099,19.564925 14.905657,19.399172 15.59728,19.038625 15.957945,18.848645 16.323384,18.5562 16.386437,18.132482 16.021193,18.52211 15.495167,18.702461 15.003074,18.872989 Z"
     id="java"
     style="display:none">

</path>
  <path
     id="c#"
     d="M 9.0000003,0 A 2.5711105,2.5711105 0 0 0 7.7137103,0.344907 L 1.2816016,4.058132 A 2.5726051,2.5726051 0 0 0 -0.00468749,6.286246 V 13.713357 C -0.00468749,14.632183 0.48533131,15.481976 1.2816016,15.941028 L 7.7137103,19.655135 A 2.5716656,2.5716656 0 0 0 10.28651,19.655135 L 16.718398,15.941028 A 2.5722634,2.5722634 0 0 0 18.004687,13.713357 V 6.286246 C 18.004687,5.367076 17.514669,4.517356 16.718398,4.058132 L 10.286289,0.344907 A 2.5711105,2.5711105 0 0 0 9.0000003,0 Z M 5.1411323,6.784959 A 1.9296946,1.9296946 0 0 1 7.0708973,8.714724 0.64316898,0.64316898 0 0 1 5.7846073,8.714724 0.64325503,0.64325503 0 1 0 4.4980973,8.714724 L 4.4978772,8.714286 V 11.287306 A 0.64223059,0.64223059 0 0 0 5.1411323,11.930782 0.64298129,0.64298129 0 0 0 5.7846073,11.287306 0.64316898,0.64316898 0 1 1 7.0708973,11.287306 1.9297651,1.9297651 0 0 1 3.2113671,11.287306 V 8.714724 A 1.9296946,1.9296946 0 0 1 5.1411323,6.784959 Z M 10.286289,6.78518 A 0.64316898,0.64316898 0 0 1 10.929544,7.428435 V 8.071252 H 12.215834 V 7.428435 A 0.64316898,0.64316898 0 1 1 13.502123,7.428435 V 8.071252 H 14.145598 C 14.316009,8.071252 14.479691,8.138839 14.60018,8.259704 A 0.64185526,0.64185526 0 0 1 14.60018,9.169306 0.64260596,0.64260596 0 0 1 14.145598,9.357979 H 13.502123 V 10.644489 H 14.145598 A 0.64485808,0.64485808 0 0 1 14.788853,11.287306 H 14.789295 A 0.64260596,0.64260596 0 0 1 14.145819,11.930782 H 13.502564 V 12.573816 C 13.502564,12.744602 13.434975,12.908129 13.314112,13.028619 A 0.64185526,0.64185526 0 0 1 12.404728,13.028619 0.64523341,0.64523341 0 0 1 12.216275,12.573816 V 11.930782 H 10.929765 V 12.573816 A 0.64185526,0.64185526 0 0 1 10.28651,13.217071 0.64185526,0.64185526 0 0 1 9.6434763,12.573816 V 11.930782 H 8.9997793 A 0.64316898,0.64316898 0 0 1 8.9997793,10.644489 H 9.6432553 V 9.357979 H 8.9997793 A 0.64316898,0.64316898 0 1 1 8.9997793,8.071691 H 9.6432553 V 7.428435 A 0.64316898,0.64316898 0 0 1 10.286289,6.78518 Z M 10.929765,9.357979 V 10.644489 H 12.216275 V 9.357979 Z"
     style="display:none" />
  <path
     id="vb"
     d="M 9,0 A 10,10 0 0 0 -1,10 10,10 0 0 0 9,20 10,10 0 0 0 19,10 10,10 0 0 0 9,0 Z M 8.4122375,6.0467525 9.4028375,6.0626225 6.5,13.937378 H 5.4721625 L 2.615725,6.0626225 H 3.64355 L 5.83105,12.312623 A 3.709375,3.709375 0 0 1 5.9903625,13.009644 H 6.012325 A 3.4375,3.4375 0 0 1 6.1875,12.296753 Z M 10.537475,6.0626225 H 12.778075 A 2.45,2.45 0 0 1 14.396725,6.5625 1.615625,1.615625 0 0 1 14.9967,7.8656 1.915625,1.915625 0 0 1 14.625,9.02832 1.95625,1.95625 0 0 1 13.62525,9.731445 V 9.7534175 A 2.003125,2.003125 0 0 1 14.900263,10.353394 1.85,1.85 0 0 1 15.378175,11.674805 2.059375,2.059375 0 0 1 14.653075,13.312378 2.7,2.7 0 0 1 12.825075,13.937378 H 10.537475 Z M 12.521725,6.884155 11.474975,6.8939212 V 9.4372563 H 12.412475 A 1.79375,1.79375 0 0 0 13.597163,9.0625 1.271875,1.271875 0 0 0 14.031125,8.0310063 C 14.031125,7.2664238 13.527975,6.884155 12.521725,6.884155 Z M 11.474975,10.265503 V 13.099976 H 12.724975 A 1.875,1.875 0 0 0 13.974975,12.715454 1.315625,1.315625 0 0 0 14.42175,11.662598 C 14.42175,10.733432 13.788388,10.268555 12.521725,10.268555 Z"
     style="display:none" />
  <path
     d="M 8.9999999,0 C 14.522999,0 19,4.589983 19,10.252962 19,14.781945 16.137999,18.623931 12.167,19.980926 11.66,20.081926 11.48,19.761927 11.48,19.488928 11.48,19.150929 11.492,18.046933 11.492,16.674938 11.492,15.718942 11.172,15.094944 10.813,14.776945 13.04,14.522946 15.38,13.655949 15.38,9.717964 15.38,8.5979681 14.992,7.6839715 14.35,6.9659742 14.454,6.7069751 14.796999,5.663979 14.251999,4.2519842 14.251999,4.2519842 13.414,3.9769853 11.505,5.3029803 10.706,5.0759812 9.8499999,4.9619816 8.9999999,4.9579816 8.15,4.9619816 7.295,5.0759812 6.4969999,5.3029803 4.586,3.9769853 3.746,4.2519842 3.746,4.2519842 3.203,5.663979 3.546,6.7069751 3.649,6.9659742 3.0099999,7.6839715 2.619,8.5979681 2.619,9.717964 2.619,13.645949 4.9539999,14.525946 7.1749999,14.784945 6.889,15.040944 6.6299999,15.492943 6.54,16.15594 5.97,16.417939 4.5219999,16.870937 3.6299999,15.303943 3.6299999,15.303943 3.101,14.318947 2.097,14.246947 2.097,14.246947 1.122,14.233947 2.029,14.869945 2.029,14.869945 2.6839999,15.184944 3.139,16.369939 3.139,16.369939 3.726,18.199933 6.508,17.579935 6.513,18.436932 6.5219999,19.244929 6.5219999,19.488928 6.5219999,19.759927 6.338,20.076926 5.839,19.981926 1.865,18.626931 -1,14.782945 -1,10.252962 -1,4.589983 3.478,0 8.9999999,0"
     id="github" />
  <path
     d="M 17.399578,0.00179362 H 0.71246076 C 0.49737813,-0.00828035 0.28240802,0.02415418 0.07987532,0.09725988 -0.12265754,0.17036574 -0.30877836,0.28269301 -0.46784971,0.42780472 -0.62690846,0.57292889 -0.75579301,0.74800036 -0.84710341,0.94298251 -0.93841382,1.1379771 -0.99037517,1.3490577 -1,1.5641507 V 18.287656 C -0.98740029,18.737741 -0.80292942,19.166076 -0.48447428,19.484422 -0.16601914,19.802893 0.26227099,19.987376 0.71246076,20 H 17.399578 C 17.837193,19.980502 18.249808,19.79027 18.548927,19.470174 18.848044,19.150077 19.009792,18.725616 18.999541,18.287656 V 1.5641507 C 19.003166,1.3547947 18.963916,1.1469263 18.884294,0.95326902 18.804672,0.7596243 18.686298,0.5842779 18.536426,0.43797874 18.38668,0.29169218 18.20856,0.17755263 18.013064,0.1025469 17.817568,0.02754132 17.608823,-0.00674299 17.399578,0.00179362 Z M 5.2498566,16.675304 H 2.3374234 V 7.7636206 H 5.2498566 Z M 3.8623884,6.4137067 C 3.6591556,6.4207935 3.4566478,6.3857717 3.267602,6.3108536 3.078544,6.2359355 2.9070229,6.1227333 2.7638261,5.9783591 2.620617,5.8339847 2.5088069,5.661563 2.4354338,5.4719178 2.3620479,5.2822728 2.3286861,5.0795038 2.3374234,4.8763474 2.3284361,4.6709912 2.3624729,4.4660349 2.4373586,4.274615 2.5122444,4.0831825 2.6263168,3.9095235 2.772251,3.7647741 2.9181977,3.6200125 3.092781,3.5073602 3.2848141,3.434042 3.4768598,3.3607111 3.6821051,3.3283391 3.8873878,3.3389882 4.0906207,3.3319138 4.2931285,3.3669231 4.4821743,3.4418412 4.6712323,3.5167594 4.8427534,3.6299615 4.9859501,3.7743358 5.1291593,3.9187101 5.2409693,4.0911318 5.3143425,4.280777 5.3877284,4.470422 5.4210902,4.673191 5.4123529,4.8763474 5.4213402,5.0817037 5.3873034,5.2866599 5.3124176,5.4780799 5.2375319,5.6695123 5.1234594,5.8431714 4.9775252,5.9879207 4.8315786,6.1326824 4.6569952,6.2453346 4.4649622,6.3186529 4.2729164,6.3919837 4.0676712,6.4243557 3.8623884,6.4137067 Z M 15.674618,16.675304 H 12.749685 V 11.80075 C 12.749685,10.638357 12.337194,9.8384306 11.299718,9.8384306 10.977476,9.8411804 10.663857,9.9435461 10.402113,10.131529 10.140244,10.319512 9.9429988,10.583862 9.8372513,10.888334 9.7560031,11.116564 9.722004,11.358916 9.7372535,11.600769 V 16.675304 H 6.8623196 V 7.7636206 H 9.7372535 V 9.0135061 C 9.9928728,8.5439242 10.373238,8.1542099 10.836479,7.8872343 11.299718,7.6203837 11.827706,7.4867459 12.362193,7.5011071 14.24965,7.5011071 15.674618,8.7510301 15.674618,11.413286 Z"
     id="linkedin" />
</svg>
