<?xml version="1.0" encoding="UTF-8" standalone="no"?>
<!-- Uploaded to: SVG Repo, www.svgrepo.com, Generator: SVG Repo Mixer Tools -->

<svg
   width="800px"
   height="800px"
   viewBox="0 0 20 20"
   version="1.1"
   id="svg1"
   sodipodi:docname="javascript-155-svgrepo-com.svg"
   inkscape:version="1.3.2 (091e20e, 2023-11-25, custom)"
   xmlns:inkscape="http://www.inkscape.org/namespaces/inkscape"
   xmlns:sodipodi="http://sodipodi.sourceforge.net/DTD/sodipodi-0.dtd"
   xmlns="http://www.w3.org/2000/svg"
   xmlns:svg="http://www.w3.org/2000/svg">
  <sodipodi:namedview
     id="namedview1"
     pagecolor="#ffffff"
     bordercolor="#000000"
     borderopacity="0.25"
     inkscape:showpageshadow="2"
     inkscape:pageopacity="0.0"
     inkscape:pagecheckerboard="0"
     inkscape:deskcolor="#d1d1d1"
     inkscape:zoom="1.47625"
     inkscape:cx="400"
     inkscape:cy="400"
     inkscape:window-width="2560"
     inkscape:window-height="1377"
     inkscape:window-x="-8"
     inkscape:window-y="-8"
     inkscape:window-maximized="1"
     inkscape:current-layer="svg1" />
  <title
     id="title1">javascript [#155]</title>
  <desc
     id="desc1">Created with Sketch.</desc>
  <defs
     id="defs1" />
  <path
     d="m 15.328,18.432 c -1.745,0 -2.873,-0.832 -3.423,-1.92 v 0 l 1.53,-0.886 c 0.403,0.658 0.926,1.141 1.853,1.141 0.778,0 1.275,-0.389 1.275,-0.926 0,-0.808 -1.078,-1.124 -1.839,-1.45 -1.356,-0.577 -2.256,-1.302 -2.256,-2.833 0,-1.409 1.074,-2.483 2.753,-2.483 1.194,0 2.054,0.416 2.671,1.503 l -1.463,0.94 c -0.322,-0.577 -0.671,-0.805 -1.208,-0.805 -0.551,0 -0.9,0.349 -0.9,0.805 0,0.564 0.349,0.792 1.155,1.141 1.689,0.724 2.967,1.293 2.967,3.155 0,1.692 -1.329,2.618 -3.115,2.618 z M 11,15.599 C 11,17.546 9.801,18.575 8.136,18.575 6.632,18.575 5.731,18 5.288,17 H 5.273 5.266 5.262 l 1.529,-1.069 c 0.295,0.523 0.561,0.894 1.205,0.894 C 8.614,16.825 9,16.512 9,15.573 V 9 h 2 z M 0,20 H 20 V 0 H 0 Z"
     id="javascript-[#155]" />
</svg>
