<?xml version="1.0" encoding="UTF-8" standalone="no"?>
<!-- Uploaded to: SVG Repo, www.svgrepo.com, Generator: SVG Repo Mixer Tools -->

<svg
   width="800px"
   height="800px"
   viewBox="0 0 20 20"
   version="1.1"
   id="svg1"
   sodipodi:docname="python-127-svgrepo-com.svg"
   inkscape:version="1.3.2 (091e20e, 2023-11-25, custom)"
   xmlns:inkscape="http://www.inkscape.org/namespaces/inkscape"
   xmlns:sodipodi="http://sodipodi.sourceforge.net/DTD/sodipodi-0.dtd"
   xmlns="http://www.w3.org/2000/svg"
   xmlns:svg="http://www.w3.org/2000/svg">
  <sodipodi:namedview
     id="namedview1"
     pagecolor="#ffffff"
     bordercolor="#000000"
     borderopacity="0.25"
     inkscape:showpageshadow="2"
     inkscape:pageopacity="0.0"
     inkscape:pagecheckerboard="0"
     inkscape:deskcolor="#d1d1d1"
     inkscape:zoom="1.47625"
     inkscape:cx="400"
     inkscape:cy="400"
     inkscape:window-width="2560"
     inkscape:window-height="1377"
     inkscape:window-x="-8"
     inkscape:window-y="-8"
     inkscape:window-maximized="1"
     inkscape:current-layer="svg1" />
  <title
     id="title1">python [#127]</title>
  <desc
     id="desc1">Created with Sketch.</desc>
  <defs
     id="defs1" />
  <path
     d="m 12.744,18.45798 c -0.482,0 -0.872,-0.39204 -0.872,-0.87656 0,-0.48452 0.39,-0.87555 0.872,-0.87555 0.482,0 0.872,0.39103 0.872,0.87555 0,0.48452 -0.39,0.87656 -0.872,0.87656 M 10.072,20 c 5.078,0 4.761,-2.21351 4.761,-2.21351 L 14.827,15.49357 H 9.982 v -0.68858 h 6.769 c 0,0 3.249,0.37092 3.249,-4.77885 C 20,4.87636 17.165,5.0583 17.165,5.0583 h -1.693 v 2.39043 c 0,0 0.091,2.84982 -2.79,2.84982 H 7.876 c 0,0 -2.7,-0.04322 -2.7,2.62365 v 4.40892 c 0,0 -0.41,2.66888 4.896,2.66888 M 7.257,1.54202 c 0.482,0 0.871,0.39204 0.871,0.87656 0,0.48452 -0.389,0.87555 -0.871,0.87555 -0.482,0 -0.872,-0.39103 -0.872,-0.87555 0,-0.48452 0.39,-0.87656 0.872,-0.87656 M 9.928,0 C 4.851,0 5.168,2.21351 5.168,2.21351 l 0.006,2.29292 h 4.845 v 0.68858 h -6.77 c 0,0 -3.249,-0.37092 -3.249,4.77885 0,5.14978 2.836,4.96784 2.836,4.96784 h 1.692 v -2.39043 c 0,0 -0.091,-2.84982 2.791,-2.84982 h 4.805 c 0,0 2.7,0.04322 2.7,-2.62365 V 2.66888 C 14.824,2.66888 15.234,0 9.928,0"
     id="python-[#127]" />
</svg>
